<svg xmlns="http://www.w3.org/2000/svg" viewBox="0 0 438.9303 168.0618"><defs><style>.cls-1{fill:#fff;}</style></defs><title>partner</title><g id="_2192" data-name="2192"><path class="cls-1" d="M61.4536,102.4226H58.537a14.6408,14.6408,0,0,1-14.6276,14.6285H29.2712V0H0V146.317H46.8315a14.6357,14.6357,0,0,0,14.6221-14.6415Z"/><path class="cls-1" d="M58.537,131.6755A14.6449,14.6449,0,0,1,43.9041,146.317H58.537a29.26,29.26,0,0,0,29.256-29.2659v-87.79A29.266,29.266,0,0,0,58.537,0H0V14.6329A14.6374,14.6374,0,0,0,14.6426,29.2615H43.9041A14.6385,14.6385,0,0,1,58.537,43.8955v87.78Z"/><path class="cls-1" d="M409.6711,146.317V14.6329A14.6342,14.6342,0,0,1,424.3082,0H438.93V131.6755a14.6364,14.6364,0,0,1-14.6221,14.6415Z"/><path class="cls-1" d="M284.4263,79.5866a50.1287,50.1287,0,0,1-24.4054,13.5242A14.6317,14.6317,0,1,1,234.1,102.4226V94.3679H204.84v37.3076a14.6421,14.6421,0,0,0,14.6328,14.6415h29.2647a43.8991,43.8991,0,0,0,36.778-67.8541C285.1539,78.8438,284.7986,79.2185,284.4263,79.5866Z"/><path class="cls-1" d="M234.1,43.8955a14.6275,14.6275,0,0,1,8.05-13.0649V0H204.84V51.9406H234.1Z"/><path class="cls-1" d="M131.696,57.805V0H117.0533a14.6254,14.6254,0,0,0-14.6274,14.6329V51.9406h14.6274A21.2012,21.2012,0,0,1,131.696,57.805Z"/><path class="cls-1" d="M190.207,51.9406V14.6329A14.6307,14.6307,0,0,0,175.5838,0H160.9519V57.805a21.1337,21.1337,0,0,1,14.6319-5.8644Z"/><path class="cls-1" d="M307.26,146.317h14.6242a14.6323,14.6323,0,0,0,14.6287-14.6415V94.3679H307.26Z"/><path class="cls-1" d="M336.5132,51.95V35.8363h-.0044V14.6329A21.1568,21.1568,0,0,1,342.37,0h-5.857A29.2687,29.2687,0,0,0,307.26,29.2615V57.805a21.1465,21.1465,0,0,1,14.6242-5.8644Z"/><path class="cls-1" d="M366.3019,94.3679h-.5186v37.3076a14.6364,14.6364,0,0,0,14.6219,14.6415H395.04V79.21A35.8618,35.8618,0,0,1,366.3019,94.3679Z"/></g><g id="_674" data-name="674"><path class="cls-1" d="M163.88,131.6755V117.0511H146.3181A14.6234,14.6234,0,0,1,131.696,102.427V73.1612a14.6475,14.6475,0,0,0-14.6427-14.64H102.4259v58.53a29.2616,29.2616,0,0,0,29.27,29.2659h17.5506A14.6444,14.6444,0,0,0,163.88,131.6755Z"/><path class="cls-1" d="M248.7374,0V29.2615a14.63,14.63,0,0,1,0,29.2592H201.919a14.6353,14.6353,0,0,0-14.6244,14.64V87.7855h61.4428a43.8928,43.8928,0,0,0,0-87.7855Z"/><path class="cls-1" d="M240.7816,102.1773a8.0505,8.0505,0,1,0,8.0484-8.0506h-8.0484Z"/><path class="cls-1" d="M148.6418,160.0114a8.0477,8.0477,0,1,0,8.0428-8.042h-8.0428Z"/><path class="cls-1" d="M127.0412,160.0114a8.0472,8.0472,0,1,0,8.0514-8.042h-8.0514Z"/><path class="cls-1" d="M307.26,73.1612a14.6367,14.6367,0,0,1,14.6242-14.64l29.2636.0161a14.6269,14.6269,0,1,0,0-29.2537l-8.0611-.0258V14.6329A14.6362,14.6362,0,0,1,357.72,0h8.0634A29.2646,29.2646,0,0,1,395.04,29.2573V58.5207a29.26,29.26,0,0,1-29.257,29.2648H307.26Z"/><path class="cls-1" d="M351.1481,87.7855a14.6274,14.6274,0,0,0,14.6352-14.6243V43.9094a14.6312,14.6312,0,0,1-14.6352,14.6274l-29.2636-.0161a14.6367,14.6367,0,0,0-14.6242,14.64V87.7855Z"/><path class="cls-1" d="M204.8313,58.5207H175.5838a14.64,14.64,0,0,0-14.6319,14.64v43.89h0v14.6244a14.6444,14.6444,0,0,1-14.6338,14.6415h14.6338a29.2617,29.2617,0,0,0,29.2551-29.2659v-43.89A14.6449,14.6449,0,0,1,204.8313,58.5207Z"/></g></svg>